<svg xmlns="http://www.w3.org/2000/svg" viewBox="0 0 900 300" width="900" height="300">
  <defs>
    <linearGradient id="bg" x1="0%" y1="0%" x2="100%" y2="100%">
      <stop offset="0%" style="stop-color:#0e3350"/>
      <stop offset="100%" style="stop-color:#1c5a78"/>
    </linearGradient>
  </defs>
  <rect width="900" height="300" fill="url(#bg)"/>
  <path d="M0 220 Q150 190 300 220 T600 220 T900 220 V300 H0Z" fill="#2e86ab" opacity="0.12"/>
  <path d="M0 240 Q150 210 300 240 T600 240 T900 240 V300 H0Z" fill="#2e86ab" opacity="0.15"/>
  <path d="M0 260 Q150 230 300 260 T600 260 T900 260 V300 H0Z" fill="#2e86ab" opacity="0.10"/>
  <g transform="translate(720, 160)" opacity="0.08">
    <polygon points="0,40 80,40 90,20 70,0 10,0 -10,20" fill="white"/>
    <rect x="35" y="-30" width="4" height="30" fill="white"/>
    <polygon points="39,-30 39,0 70,-10" fill="white"/>
  </g>
  <text x="50" y="140" font-family="Arial,sans-serif" font-size="120" font-weight="bold" fill="white" opacity="0.06">PA</text>
  <rect y="190" width="900" height="110" fill="#2e86ab" opacity="0.18"/>
  <text x="450" y="240" font-family="Georgia,serif" font-size="36" font-weight="bold" fill="white" opacity="0.95" text-anchor="middle">Pennsylvania</text>
  <text x="450" y="270" font-family="Arial,sans-serif" font-size="16" fill="white" opacity="0.70" text-anchor="middle">Boater Education Certification Guide</text>
</svg>