<svg xmlns="http://www.w3.org/2000/svg" viewBox="0 0 900 300" width="900" height="300">
  <defs>
    <linearGradient id="bg" x1="0%" y1="0%" x2="100%" y2="100%">
      <stop offset="0%" style="stop-color:#10375a"/>
      <stop offset="100%" style="stop-color:#1e5f8a"/>
    </linearGradient>
  </defs>
  <rect width="900" height="300" fill="url(#bg)"/>
  <path d="M0 220 Q150 190 300 220 T600 220 T900 220 V300 H0Z" fill="#3498db" opacity="0.12"/>
  <path d="M0 240 Q150 210 300 240 T600 240 T900 240 V300 H0Z" fill="#3498db" opacity="0.15"/>
  <path d="M0 260 Q150 230 300 260 T600 260 T900 260 V300 H0Z" fill="#3498db" opacity="0.10"/>
  <g transform="translate(400, 25)" opacity="0.12">
    <path d="M50 5 L100 30 L100 75 Q100 105 50 125 Q0 105 0 75 L0 30 Z" fill="white"/>
  </g>
  <rect y="190" width="900" height="110" fill="#3498db" opacity="0.18"/>
  <text x="450" y="245" font-family="Georgia,serif" font-size="28" font-weight="bold" fill="white" opacity="0.95" text-anchor="middle">States With 100% Online Boater Ed</text>
  <text x="450" y="275" font-family="Arial,sans-serif" font-size="14" fill="white" opacity="0.65" text-anchor="middle">Online Boater Education</text>
</svg>