<svg xmlns="http://www.w3.org/2000/svg" viewBox="0 0 900 300" width="900" height="300">
  <defs>
    <linearGradient id="bg" x1="0%" y1="0%" x2="100%" y2="100%">
      <stop offset="0%" style="stop-color:#0c3547"/>
      <stop offset="100%" style="stop-color:#1a5276"/>
    </linearGradient>
  </defs>
  <rect width="900" height="300" fill="url(#bg)"/>
  <path d="M0 220 Q150 190 300 220 T600 220 T900 220 V300 H0Z" fill="#2980b9" opacity="0.12"/>
  <path d="M0 240 Q150 210 300 240 T600 240 T900 240 V300 H0Z" fill="#2980b9" opacity="0.15"/>
  <path d="M0 260 Q150 230 300 260 T600 260 T900 260 V300 H0Z" fill="#2980b9" opacity="0.10"/>
  <g transform="translate(380, 40)" opacity="0.12">
    <rect width="140" height="90" rx="8" fill="white"/>
    <rect x="15" y="15" width="50" height="50" rx="4" fill="white" opacity="0.5"/>
    <rect x="75" y="20" width="50" height="8" rx="2" fill="white" opacity="0.4"/>
    <rect x="75" y="38" width="40" height="6" rx="2" fill="white" opacity="0.3"/>
  </g>
  <rect y="190" width="900" height="110" fill="#2980b9" opacity="0.18"/>
  <text x="450" y="245" font-family="Georgia,serif" font-size="28" font-weight="bold" fill="white" opacity="0.95" text-anchor="middle">Do I Need a Boating License?</text>
  <text x="450" y="275" font-family="Arial,sans-serif" font-size="14" fill="white" opacity="0.65" text-anchor="middle">Online Boater Education</text>
</svg>