<svg xmlns="http://www.w3.org/2000/svg" viewBox="0 0 900 300" width="900" height="300">
  <defs>
    <linearGradient id="bg" x1="0%" y1="0%" x2="100%" y2="100%">
      <stop offset="0%" style="stop-color:#0b2e3e"/>
      <stop offset="100%" style="stop-color:#164a5f"/>
    </linearGradient>
  </defs>
  <rect width="900" height="300" fill="url(#bg)"/>
  <path d="M0 220 Q150 190 300 220 T600 220 T900 220 V300 H0Z" fill="#2d7d9a" opacity="0.12"/>
  <path d="M0 240 Q150 210 300 240 T600 240 T900 240 V300 H0Z" fill="#2d7d9a" opacity="0.15"/>
  <path d="M0 260 Q150 230 300 260 T600 260 T900 260 V300 H0Z" fill="#2d7d9a" opacity="0.10"/>
  <g transform="translate(405, 25)" opacity="0.12">
    <rect width="90" height="115" rx="6" fill="white"/>
    <rect x="20" y="-6" width="50" height="16" rx="4" fill="white" opacity="0.8"/>
    <rect x="15" y="30" width="60" height="6" rx="2" fill="white" opacity="0.4"/>
    <rect x="15" y="48" width="50" height="6" rx="2" fill="white" opacity="0.4"/>
    <rect x="15" y="66" width="55" height="6" rx="2" fill="white" opacity="0.4"/>
  </g>
  <rect y="190" width="900" height="110" fill="#2d7d9a" opacity="0.18"/>
  <text x="450" y="245" font-family="Georgia,serif" font-size="28" font-weight="bold" fill="white" opacity="0.95" text-anchor="middle">Boating Safety Field Day Guide</text>
  <text x="450" y="275" font-family="Arial,sans-serif" font-size="14" fill="white" opacity="0.65" text-anchor="middle">Online Boater Education</text>
</svg>